<svg width="24" height="24" viewBox="0 0 24 24" fill="none" xmlns="http://www.w3.org/2000/svg">
<circle cx="12" cy="12" r="11.5" fill="white" fill-opacity="0.12" stroke="white"/>
<path d="M15.7086 4.66956L13.8571 4.6665C11.777 4.6665 10.4328 6.08323 10.4328 8.27599V9.9402H8.57116C8.4103 9.9402 8.28003 10.0742 8.28003 10.2394V12.6507C8.28003 12.8159 8.41045 12.9498 8.57116 12.9498H10.4328V19.0341C10.4328 19.1994 10.563 19.3332 10.7239 19.3332H13.1528C13.3136 19.3332 13.4439 19.1992 13.4439 19.0341V12.9498H15.6206C15.7814 12.9498 15.9117 12.8159 15.9117 12.6507L15.9126 10.2394C15.9126 10.1601 15.8818 10.0841 15.8273 10.0279C15.7728 9.97179 15.6986 9.9402 15.6213 9.9402H13.4439V8.52943C13.4439 7.85135 13.6012 7.50713 14.4611 7.50713L15.7084 7.50667C15.869 7.50667 15.9993 7.3727 15.9993 7.20761V4.96862C15.9993 4.80368 15.8692 4.66986 15.7086 4.66956Z" fill="white"/>
</svg>
