<svg width="24" height="24" viewBox="0 0 24 24" fill="none" xmlns="http://www.w3.org/2000/svg">
<circle cx="12" cy="12" r="11.5" fill="white" fill-opacity="0.12" stroke="white"/>
<path fill-rule="evenodd" clip-rule="evenodd" d="M5.33337 12.0002C5.33337 9.20592 5.33337 7.80879 6.03365 6.84495C6.2598 6.53367 6.53355 6.25992 6.84483 6.03377C7.80867 5.3335 9.20579 5.3335 12 5.3335C14.7943 5.3335 16.1914 5.3335 17.1552 6.03377C17.4665 6.25992 17.7403 6.53367 17.9664 6.84495C18.6667 7.80879 18.6667 9.20592 18.6667 12.0002C18.6667 14.7944 18.6667 16.1916 17.9664 17.1554C17.7403 17.4666 17.4665 17.7404 17.1552 17.9666C16.1914 18.6668 14.7943 18.6668 12 18.6668C9.20579 18.6668 7.80867 18.6668 6.84483 17.9666C6.53355 17.7404 6.2598 17.4666 6.03365 17.1554C5.33337 16.1916 5.33337 14.7944 5.33337 12.0002ZM12 8.47075C10.0509 8.47075 8.47063 10.051 8.47063 12.0002C8.47063 13.9493 10.0509 15.5296 12 15.5296C13.9492 15.5296 15.5294 13.9493 15.5294 12.0002C15.5294 10.051 13.9492 8.47075 12 8.47075ZM12 14.206C10.7842 14.206 9.79416 13.216 9.79416 12.0002C9.79416 10.7834 10.7842 9.79428 12 9.79428C13.2159 9.79428 14.2059 10.7834 14.2059 12.0002C14.2059 13.216 13.2159 14.206 12 14.206ZM16.2644 8.20605C16.2644 8.46579 16.0539 8.67634 15.7942 8.67634C15.5344 8.67634 15.3238 8.46579 15.3238 8.20605C15.3238 7.94632 15.5344 7.73576 15.7942 7.73576C16.0539 7.73576 16.2644 7.94632 16.2644 8.20605Z" fill="white"/>
</svg>
