<svg width="24" height="24" viewBox="0 0 24 24" fill="none" xmlns="http://www.w3.org/2000/svg">
<path d="M19 7.84839C18.4847 8.06701 17.9319 8.21527 17.3509 8.28147C17.9441 7.94137 18.3981 7.40191 18.6133 6.76109C18.0569 7.07605 17.4428 7.30475 16.7884 7.42873C16.2644 6.89346 15.519 6.56006 14.6923 6.56006C13.1062 6.56006 11.8202 7.79143 11.8202 9.30929C11.8202 9.52457 11.8455 9.73482 11.8945 9.93588C9.50801 9.8211 7.39179 8.72627 5.97543 7.06265C5.72784 7.46809 5.58699 7.94051 5.58699 8.44481C5.58699 9.39893 6.09441 10.2408 6.86427 10.7333C6.3936 10.7183 5.95093 10.5943 5.56339 10.3882V10.4225C5.56339 11.7545 6.55371 12.866 7.86683 13.119C7.62624 13.181 7.37255 13.2153 7.11009 13.2153C6.92464 13.2153 6.74529 13.1977 6.56945 13.1643C6.93511 14.2574 7.99543 15.0523 9.25171 15.0741C8.26925 15.8113 7.03049 16.2494 5.68499 16.2494C5.45317 16.2494 5.22483 16.236 5 16.2117C6.27114 16.9933 7.78024 17.4489 9.40218 17.4489C14.6853 17.4489 17.5731 13.2589 17.5731 9.6251L17.5635 9.2691C18.1278 8.88374 18.6159 8.39957 19 7.84839Z" fill="white"/>
<circle cx="12" cy="12" r="11.5" fill="white" fill-opacity="0.12" stroke="white"/>
</svg>
