<svg width="72" height="72" viewBox="0 0 72 72" fill="none" xmlns="http://www.w3.org/2000/svg">
<circle cx="36" cy="36" r="35.5" fill="white" fill-opacity="0.05" stroke="#23201B"/>
<g clip-path="url(#clip0)">
<path d="M50.7308 30.9329H32.1371C31.8135 30.9329 31.5511 31.1953 31.5511 31.5189C31.5511 31.8425 31.8135 32.1048 32.1371 32.1048H50.7308C51.0544 32.1048 51.3168 31.8425 51.3168 31.5189C51.3168 31.1953 51.0544 30.9329 50.7308 30.9329Z" fill="#23201B"/>
<path d="M50.7308 35.412H32.1371C31.8135 35.412 31.5511 35.6744 31.5511 35.998C31.5511 36.3216 31.8135 36.5839 32.1371 36.5839H50.7308C51.0544 36.5839 51.3168 36.3216 51.3168 35.998C51.3168 35.6744 51.0544 35.412 50.7308 35.412Z" fill="#23201B"/>
<path d="M50.7308 39.8912H32.1371C31.8135 39.8912 31.5511 40.1535 31.5511 40.4771C31.5511 40.8007 31.8135 41.063 32.1371 41.063H50.7308C51.0544 41.063 51.3168 40.8007 51.3168 40.4771C51.3168 40.1535 51.0544 39.8912 50.7308 39.8912Z" fill="#23201B"/>
<path d="M52.592 25.8085H30.2759C28.3967 25.8085 26.8679 27.3373 26.8679 29.2165V43.2491C26.8679 45.1282 28.3967 46.657 30.2759 46.657H45.9174C46.0846 46.657 46.24 46.7323 46.3438 46.8636L51.3949 53.2584C51.594 53.5104 51.8845 53.6478 52.1886 53.6478C52.3017 53.6478 52.4167 53.6288 52.5295 53.5895C52.9457 53.445 53.2146 53.067 53.2146 52.6264V46.5988C54.7946 46.3037 56 44.9067 56 43.2491V29.2164C56 27.3373 54.4712 25.8085 52.592 25.8085ZM54.8281 43.2491C54.8281 44.466 53.838 45.4688 52.621 45.4842C52.3004 45.4884 52.0426 45.7495 52.0426 46.0702V52.1878L47.2634 46.1372C46.9361 45.7228 46.4455 45.4851 45.9174 45.4851H30.2759C29.0429 45.4851 28.0398 44.482 28.0398 43.249V29.2164C28.0398 27.9835 29.0428 26.9803 30.2759 26.9803H52.592C53.8249 26.9803 54.8281 27.9835 54.8281 29.2164V43.2491Z" fill="#23201B"/>
<path d="M24.6323 35.497C24.2316 35.5538 23.8727 35.7602 23.6217 36.0778L19.5966 41.1736V36.0665C19.5966 35.7458 19.3388 35.4847 19.0182 35.4806C18.0002 35.4676 17.1719 34.6288 17.1719 33.6106V21.3949C17.1719 20.3634 18.0111 19.5242 19.0426 19.5242H38.4694C39.5009 19.5242 40.3401 20.3634 40.3401 21.3949V23.6552C40.3401 23.9788 40.6024 24.2412 40.926 24.2412C41.2496 24.2412 41.512 23.9788 41.512 23.6552V21.3949C41.512 19.7173 40.147 18.3524 38.4694 18.3524H19.0426C17.3649 18.3524 16 19.7173 16 21.3949V33.6106C16 35.069 17.0446 36.3011 18.4248 36.5891V41.7739C18.4248 42.1902 18.6789 42.5474 19.0722 42.684C19.1788 42.721 19.2874 42.739 19.3943 42.739C19.6816 42.739 19.9562 42.6092 20.1442 42.3711L24.5414 36.8042C24.6048 36.7238 24.6957 36.6717 24.7971 36.6572C25.1175 36.6117 25.3404 36.3151 25.2948 35.9947C25.2494 35.6743 24.9532 35.4513 24.6323 35.497Z" fill="#23201B"/>
</g>
<defs>
<clipPath id="clip0">
<rect width="40" height="40" fill="white" transform="translate(16 16)"/>
</clipPath>
</defs>
</svg>
