<svg width="72" height="72" viewBox="0 0 72 72" fill="none" xmlns="http://www.w3.org/2000/svg">
<circle cx="36" cy="36" r="35.5" fill="white" fill-opacity="0.05" stroke="#23201B"/>
<path d="M37.971 56H35.49C34.2989 56 33.3298 55.0309 33.3298 53.8399V53.7574C33.3298 52.5662 34.2989 51.5973 35.49 51.5973H37.9708C38.9697 51.5973 39.8122 52.2784 40.0584 53.2007H46.0322C49.9455 53.2007 53.1291 50.0171 53.1291 46.1037V43.463H52.6785V44.9376C52.6785 46.0608 51.7648 46.9746 50.6416 46.9746H48.9501C48.6912 46.9746 48.4709 46.8101 48.3876 46.5799H47.6846C46.8213 46.5799 46.1189 45.9117 46.1189 45.0905V35.5749C46.1189 34.7537 46.8213 34.0856 47.6846 34.0856H48.3876C48.4709 33.8554 48.6912 33.6909 48.9501 33.6909H50.7512C51.8138 33.6909 52.6785 34.5554 52.6785 35.6182V37.2024H53.1291V35.3068C53.1291 25.3204 45.4451 17.196 35.9999 17.196C26.5549 17.196 18.8707 25.3204 18.8707 35.3068V37.2024H19.3214V35.6182C19.3214 34.5554 20.186 33.6909 21.2486 33.6909H23.0497C23.3087 33.6909 23.5289 33.8554 23.6122 34.0856H24.3153C25.1785 34.0856 25.881 34.7537 25.881 35.5749V45.0905C25.881 45.9117 25.1785 46.5799 24.3153 46.5799H23.6122C23.5289 46.8101 23.3087 46.9746 23.0497 46.9746H21.3583C20.2351 46.9746 19.3214 46.0608 19.3214 44.9376V43.463H18.2727C17.9424 43.463 17.6747 43.1953 17.6747 42.8651V35.3068C17.6747 24.6611 25.8955 16 35.9999 16C46.1045 16 54.3253 24.6611 54.3253 35.3068V46.1035C54.3253 50.6762 50.6051 54.3964 46.0324 54.3964H40.0586C39.8124 55.3187 38.9697 56 37.971 56ZM35.49 52.7931C34.9582 52.7931 34.5257 53.2256 34.5257 53.7572V53.8397C34.5257 54.3713 34.9582 54.8038 35.49 54.8038H37.9708C38.5026 54.8038 38.9352 54.3713 38.9352 53.8397V53.7572C38.9352 53.2256 38.5026 52.7931 37.9708 52.7931H35.49ZM49.62 45.7784H50.6418C51.1054 45.7784 51.4827 45.4011 51.4827 44.9374V35.6182C51.4827 35.215 51.1546 34.8869 50.7514 34.8869H49.62V45.7784ZM21.2486 34.8869C20.8454 34.8869 20.5173 35.215 20.5173 35.6182V44.9374C20.5173 45.4013 20.8946 45.7784 21.3583 45.7784H22.4518V34.8869H21.2486ZM47.6846 35.2815C47.484 35.2815 47.3148 35.4159 47.3148 35.5749V45.0905C47.3148 45.2496 47.4842 45.3839 47.6846 45.3839H48.4241V35.2815H47.6846ZM23.6477 45.3839H24.3155C24.516 45.3839 24.6852 45.2496 24.6852 45.0905V35.5749C24.6852 35.4159 24.5158 35.2815 24.3155 35.2815H23.6477V45.3839ZM52.6787 42.2669H53.1293V38.3984H52.6787V42.2669ZM18.8707 42.2669H19.3214V38.3984H18.8707V42.2669Z" fill="#23201B"/>
</svg>
