<svg width="130" height="24" viewBox="0 0 130 24" fill="none" xmlns="http://www.w3.org/2000/svg">
<path d="M129.061 13.0607C129.646 12.4749 129.646 11.5251 129.061 10.9393L119.515 1.3934C118.929 0.807611 117.979 0.807611 117.393 1.3934C116.808 1.97919 116.808 2.92893 117.393 3.51472L125.879 12L117.393 20.4853C116.808 21.0711 116.808 22.0208 117.393 22.6066C117.979 23.1924 118.929 23.1924 119.515 22.6066L129.061 13.0607ZM0 13.5H2V10.5H0V13.5ZM6 13.5H10V10.5H6V13.5ZM14 13.5H18V10.5H14V13.5ZM22 13.5H26V10.5H22V13.5ZM30 13.5H34V10.5H30V13.5ZM38 13.5H42V10.5H38V13.5ZM46 13.5H50V10.5H46V13.5ZM54 13.5H58V10.5H54V13.5ZM62 13.5H66V10.5H62V13.5ZM70 13.5H74V10.5H70V13.5ZM78 13.5H82V10.5H78V13.5ZM86 13.5H90V10.5H86V13.5ZM94 13.5H98V10.5H94V13.5ZM102 13.5H106V10.5H102V13.5ZM110 13.5H114V10.5H110V13.5ZM118 13.5H122V10.5H118V13.5ZM126 13.5H128V10.5H126V13.5Z" fill="#23201B"/>
</svg>
