<svg width="72" height="72" viewBox="0 0 72 72" fill="none" xmlns="http://www.w3.org/2000/svg">
<circle cx="36" cy="36" r="35.5" fill="white" fill-opacity="0.05" stroke="#23201B"/>
<g clip-path="url(#clip0)">
<path d="M43.8903 28.2878C43.7452 28.2879 43.6062 28.3455 43.5037 28.4481L33.9793 37.9725L28.4981 32.4909C28.3936 32.3921 28.2553 32.337 28.1115 32.337C27.9677 32.337 27.8294 32.3921 27.725 32.4909L25.5153 34.7009C25.4128 34.8035 25.3552 34.9425 25.3552 35.0875C25.3552 35.2324 25.4128 35.3715 25.5153 35.474L33.5937 43.5518C33.6444 43.6027 33.7047 43.643 33.771 43.6705C33.8374 43.698 33.9085 43.7121 33.9803 43.7121C34.0521 43.7121 34.1232 43.698 34.1895 43.6705C34.2558 43.643 34.3161 43.6027 34.3668 43.5518L46.4865 31.4312C46.589 31.3286 46.6466 31.1895 46.6466 31.0445C46.6466 30.8995 46.589 30.7604 46.4865 30.6578L44.2768 28.4481C44.1743 28.3455 44.0353 28.2879 43.8903 28.2878ZM33.9793 42.3918L26.6753 35.0875L28.1128 33.65L33.5937 39.1322C33.6444 39.183 33.7047 39.2233 33.771 39.2508C33.8374 39.2783 33.9085 39.2925 33.9803 39.2925C34.0521 39.2925 34.1232 39.2783 34.1895 39.2508C34.2558 39.2233 34.3161 39.183 34.3668 39.1322L43.8903 29.6081L45.3278 31.0456L33.9793 42.3918Z" fill="#23201B"/>
<path d="M36 21.1038C33.0538 21.1038 30.1738 21.9774 27.7241 23.6142C25.2744 25.2511 23.3651 27.5775 22.2377 30.2995C21.1102 33.0214 20.8152 36.0165 21.39 38.9061C21.9648 41.7957 23.3835 44.45 25.4668 46.5332C27.5501 48.6165 30.2043 50.0353 33.0939 50.61C35.9835 51.1848 38.9786 50.8898 41.7006 49.7623C44.4225 48.6349 46.749 46.7256 48.3858 44.2759C50.0226 41.8262 50.8963 38.9462 50.8963 36C50.8918 32.0506 49.3209 28.2643 46.5283 25.4717C43.7357 22.6791 39.9494 21.1082 36 21.1038ZM36 49.8025C33.2701 49.8025 30.6016 48.993 28.3318 47.4764C26.0619 45.9597 24.2928 43.8041 23.2482 41.282C22.2035 38.7599 21.9302 35.9847 22.4627 33.3073C22.9953 30.6299 24.3099 28.1705 26.2402 26.2402C28.1705 24.3099 30.6299 22.9953 33.3073 22.4627C35.9847 21.9301 38.7599 22.2035 41.282 23.2482C43.8041 24.2928 45.9597 26.0619 47.4764 28.3318C48.993 30.6016 49.8025 33.2701 49.8025 36C49.7984 39.6594 48.3429 43.1677 45.7553 45.7553C43.1677 48.3429 39.6594 49.7984 36 49.8025Z" fill="#23201B"/>
<path d="M55.3842 37.7542C55.7858 37.2578 56.0048 36.6386 56.0048 36.0001C56.0048 35.3616 55.7858 34.7425 55.3842 34.2461L54.488 33.1273C54.3162 32.9126 54.1986 32.6597 54.1451 32.39C54.0916 32.1203 54.1039 31.8416 54.1808 31.5776L54.5808 30.2055C54.7564 29.5919 54.719 28.9369 54.4747 28.3473C54.2303 27.7577 53.7934 27.2683 53.2352 26.9589L51.983 26.2714C51.7418 26.1393 51.5359 25.9511 51.3828 25.7226C51.2297 25.4942 51.1338 25.2322 51.1033 24.9589L50.947 23.5355C50.8802 22.9002 50.5972 22.3071 50.1455 21.8554C49.6938 21.4037 49.1008 21.1207 48.4655 21.0539L47.042 20.8976C46.7687 20.8672 46.5068 20.7715 46.2783 20.6184C46.0498 20.4653 45.8616 20.2595 45.7295 20.0183L45.042 18.7658C44.7374 18.203 44.2484 17.7621 43.6573 17.5171C43.0661 17.2721 42.4086 17.2378 41.7952 17.4201L40.4233 17.8198C40.1591 17.8966 39.8804 17.9087 39.6106 17.8552C39.3408 17.8017 39.0878 17.6841 38.873 17.5123L37.7542 16.6161C37.2577 16.2147 36.6386 15.9957 36.0002 15.9957C35.3617 15.9957 34.7426 16.2147 34.2461 16.6161L33.1273 17.5123C32.9124 17.6837 32.6595 17.8011 32.3899 17.8545C32.1202 17.908 31.8417 17.896 31.5777 17.8195L30.2055 17.4195C29.5919 17.2437 28.9369 17.2811 28.3472 17.5255C27.7576 17.7699 27.2682 18.2068 26.9589 18.7651L26.2714 20.0173C26.1393 20.2585 25.9511 20.4644 25.7226 20.6175C25.4942 20.7706 25.2322 20.8665 24.9589 20.897L23.5355 21.0533C22.9002 21.1201 22.3071 21.4031 21.8554 21.8548C21.4037 22.3065 21.1208 22.8995 21.0539 23.5348L20.8977 24.9583C20.8673 25.2316 20.7715 25.4935 20.6184 25.722C20.4653 25.9505 20.2595 26.1387 20.0183 26.2708L18.7658 26.9583C18.2031 27.263 17.7623 27.752 17.5173 28.3431C17.2724 28.9343 17.238 29.5917 17.4202 30.2051L17.8205 31.5767C17.8972 31.8408 17.9094 32.1196 17.8558 32.3894C17.8023 32.6592 17.6847 32.9122 17.513 33.127L16.6167 34.2458C16.2152 34.7422 15.9961 35.3613 15.9961 35.9998C15.9961 36.6383 16.2152 37.2575 16.6167 37.7539L17.513 38.8726C17.6848 39.0873 17.8024 39.3402 17.8558 39.61C17.9093 39.8797 17.8971 40.1583 17.8202 40.4223L17.4202 41.7945C17.2444 42.4081 17.2816 43.0631 17.5259 43.6527C17.7702 44.2424 18.207 44.7319 18.7652 45.0414L20.0173 45.7289C20.2586 45.861 20.4644 46.0492 20.6175 46.2777C20.7707 46.5061 20.8665 46.7681 20.897 47.0414L21.0533 48.4648C21.1201 49.1001 21.4031 49.6932 21.8548 50.1449C22.3065 50.5966 22.8996 50.8795 23.5348 50.9464L24.9583 51.1026C25.2316 51.133 25.4936 51.2288 25.722 51.3819C25.9505 51.535 26.1387 51.7408 26.2708 51.982L26.9583 53.2345C27.2629 53.7973 27.7519 54.2382 28.3431 54.4832C28.9342 54.7282 29.5917 54.7624 30.2052 54.5801L31.5767 54.1798C31.8409 54.1033 32.1195 54.0913 32.3893 54.1448C32.6591 54.1983 32.9121 54.3158 33.127 54.4873L34.2458 55.3836C34.7422 55.7851 35.3614 56.0042 35.9998 56.0042C36.6383 56.0042 37.2575 55.7851 37.7539 55.3836L38.8727 54.4873C39.0874 54.3156 39.3403 54.198 39.61 54.1446C39.8797 54.0911 40.1583 54.1033 40.4223 54.1801L41.7945 54.5801C42.4079 54.7622 43.0653 54.7279 43.6564 54.4829C44.2475 54.2379 44.7364 53.7971 45.0411 53.2345L45.7286 51.9823C45.8607 51.7411 46.0489 51.5352 46.2774 51.3821C46.5058 51.229 46.7678 51.1331 47.0411 51.1026L48.4645 50.9464C49.0998 50.8795 49.6929 50.5966 50.1446 50.1449C50.5963 49.6932 50.8792 49.1001 50.9461 48.4648L51.1023 47.0414C51.1327 46.7681 51.2285 46.5061 51.3816 46.2776C51.5347 46.0492 51.7405 45.861 51.9817 45.7289L53.2342 45.0414C53.7969 44.7366 54.2377 44.2477 54.4827 43.6565C54.7276 43.0654 54.762 42.408 54.5798 41.7945L54.1795 40.4229C54.1028 40.1588 54.0906 39.8801 54.1442 39.6103C54.1977 39.3405 54.3153 39.0875 54.487 38.8726L55.3842 37.7542ZM53.6342 38.1895C53.3527 38.5415 53.16 38.956 53.0724 39.398C52.9847 39.8401 53.0046 40.2968 53.1305 40.7295L53.5311 42.1011C53.6421 42.4754 53.6212 42.8765 53.4716 43.2371C53.3221 43.5978 53.0532 43.8961 52.7098 44.082L51.457 44.7695C51.0615 44.9863 50.7241 45.2952 50.4733 45.67C50.2225 46.0449 50.0658 46.4747 50.0164 46.9229L49.8602 48.3464C49.8191 48.734 49.6464 49.0958 49.3708 49.3714C49.0952 49.647 48.7334 49.8197 48.3458 49.8608L46.922 50.017C46.4738 50.0666 46.0441 50.2234 45.6693 50.4743C45.2945 50.7251 44.9857 51.0625 44.7689 51.4579L44.0814 52.7104C43.8954 53.0536 43.5971 53.3224 43.2365 53.4719C42.876 53.6214 42.475 53.6425 42.1008 53.5317L40.7289 53.1314C40.2963 53.0053 39.8396 52.9852 39.3976 53.0729C38.9555 53.1605 38.5411 53.3532 38.1892 53.6348L37.0705 54.5311C36.7675 54.7762 36.3896 54.91 35.9998 54.91C35.6101 54.91 35.2322 54.7762 34.9292 54.5311L33.8105 53.6348C33.4585 53.3533 33.044 53.1606 32.602 53.0729C32.1599 52.9852 31.7032 53.0052 31.2705 53.1311L29.8992 53.5314C29.5249 53.6421 29.1239 53.6209 28.7634 53.4714C28.4028 53.3219 28.1045 53.0532 27.9183 52.7101L27.2308 51.4573C27.014 51.0618 26.7051 50.7244 26.3303 50.4736C25.9554 50.2228 25.5256 50.0661 25.0773 50.0167L23.6539 49.8604C23.2663 49.8194 22.9045 49.6467 22.6289 49.3711C22.3533 49.0955 22.1806 48.7337 22.1395 48.3461L21.9833 46.9223C21.9337 46.4741 21.7768 46.0444 21.526 45.6696C21.2752 45.2948 20.9378 44.986 20.5423 44.7692L19.2898 44.0817C18.9493 43.8929 18.6827 43.5944 18.5337 43.2347C18.3846 42.875 18.3617 42.4754 18.4689 42.1011L18.8692 40.7292C18.9952 40.2965 19.0152 39.8399 18.9276 39.3979C18.84 38.9559 18.6473 38.5414 18.3658 38.1895L17.4689 37.0708C17.2238 36.7678 17.0901 36.3898 17.0901 36.0001C17.0901 35.6104 17.2238 35.2325 17.4689 34.9295L18.3652 33.8108C18.6466 33.4588 18.8393 33.0443 18.927 32.6022C19.0147 32.1602 18.9948 31.7035 18.8689 31.2708L18.4689 29.8992C18.3579 29.5249 18.3788 29.1238 18.5284 28.7631C18.6779 28.4025 18.9468 28.1042 19.2902 27.9183L20.543 27.2308C20.9385 27.014 21.2759 26.7051 21.5267 26.3303C21.7774 25.9554 21.9342 25.5256 21.9836 25.0773L22.1398 23.6539C22.1812 23.2661 22.3543 22.9043 22.6303 22.6288C22.9064 22.3534 23.2686 22.181 23.6564 22.1405L25.0802 21.9842C25.5284 21.9346 25.9581 21.7778 26.3329 21.5269C26.7077 21.2761 27.0165 20.9387 27.2333 20.5433L27.9208 19.2908C28.1095 18.9507 28.4076 18.6844 28.7668 18.5352C29.126 18.3859 29.5251 18.3626 29.8992 18.4689L31.2711 18.8692C31.7037 18.9952 32.1604 19.0153 32.6024 18.9276C33.0445 18.84 33.4589 18.6473 33.8108 18.3658L34.9295 17.4689C35.2325 17.2238 35.6104 17.09 36.0002 17.09C36.3899 17.09 36.7678 17.2238 37.0708 17.4689L38.1895 18.3651C38.5416 18.6465 38.9561 18.8391 39.3981 18.9267C39.8401 19.0144 40.2968 18.9946 40.7295 18.8689L42.1011 18.4689C42.4754 18.3583 42.8763 18.3795 43.2369 18.5289C43.5975 18.6784 43.8958 18.9471 44.082 19.2901L44.7695 20.543C44.9863 20.9385 45.2952 21.2759 45.67 21.5267C46.0449 21.7774 46.4747 21.9342 46.923 21.9836L48.3464 22.1398C48.734 22.1809 49.0958 22.3536 49.3714 22.6292C49.647 22.9048 49.8198 23.2666 49.8608 23.6542L50.017 25.078C50.0666 25.5262 50.2235 25.9559 50.4743 26.3307C50.7251 26.7055 51.0625 27.0143 51.458 27.2311L52.7105 27.9186C53.051 28.1073 53.3176 28.4059 53.4668 28.7656C53.6159 29.1252 53.6388 29.5248 53.5317 29.8992L53.1314 31.2711C53.0054 31.7037 52.9854 32.1604 53.073 32.6024C53.1607 33.0444 53.3534 33.4589 53.6348 33.8108L54.5311 34.9295C54.7762 35.2325 54.9099 35.6104 54.9099 36.0001C54.9099 36.3898 54.7762 36.7678 54.5311 37.0708L53.6342 38.1895Z" fill="#23201B"/>
</g>
<defs>
<clipPath id="clip0">
<rect width="40" height="40" fill="white" transform="translate(16 16)"/>
</clipPath>
</defs>
</svg>
