<svg width="92" height="24" viewBox="0 0 92 24" fill="none" xmlns="http://www.w3.org/2000/svg">
<path d="M91.0607 13.0607C91.6464 12.4749 91.6464 11.5251 91.0607 10.9393L81.5147 1.39339C80.9289 0.807604 79.9792 0.807604 79.3934 1.39339C78.8076 1.97918 78.8076 2.92893 79.3934 3.51471L87.8787 12L79.3934 20.4853C78.8076 21.0711 78.8076 22.0208 79.3934 22.6066C79.9792 23.1924 80.9289 23.1924 81.5147 22.6066L91.0607 13.0607ZM1.31134e-07 13.5L2.04545 13.5L2.04545 10.5L-1.31134e-07 10.5L1.31134e-07 13.5ZM6.13636 13.5L10.2273 13.5L10.2273 10.5L6.13636 10.5L6.13636 13.5ZM14.3182 13.5L18.4091 13.5L18.4091 10.5L14.3182 10.5L14.3182 13.5ZM22.5 13.5L26.5909 13.5L26.5909 10.5L22.5 10.5L22.5 13.5ZM30.6818 13.5L34.7727 13.5L34.7727 10.5L30.6818 10.5L30.6818 13.5ZM38.8636 13.5L42.9545 13.5L42.9545 10.5L38.8636 10.5L38.8636 13.5ZM47.0454 13.5L51.1364 13.5L51.1364 10.5L47.0454 10.5L47.0454 13.5ZM55.2273 13.5L59.3182 13.5L59.3182 10.5L55.2273 10.5L55.2273 13.5ZM63.4091 13.5L67.5 13.5L67.5 10.5L63.4091 10.5L63.4091 13.5ZM71.5909 13.5L75.6818 13.5L75.6818 10.5L71.5909 10.5L71.5909 13.5ZM79.7727 13.5L83.8636 13.5L83.8636 10.5L79.7727 10.5L79.7727 13.5ZM87.9546 13.5L90 13.5L90 10.5L87.9546 10.5L87.9546 13.5Z" fill="white"/>
</svg>
