<svg width="54" height="54" viewBox="0 0 54 54" fill="none" xmlns="http://www.w3.org/2000/svg">
<path d="M16.8746 46.3016C16.6192 46.3016 16.3592 46.2546 16.1071 46.1562C15.0223 45.7318 14.4863 44.5086 14.9102 43.4235L19.2967 32.2005C20.2092 29.865 20.6719 27.4099 20.6719 24.9026V16.1367C20.6719 13.8106 18.7792 11.918 16.4531 11.918H8.4375C6.11142 11.918 4.21875 13.8106 4.21875 16.1367V24.1523C4.21875 26.4784 6.11142 28.3711 8.4375 28.3711H12.8672C14.0323 28.3711 14.9766 29.3154 14.9766 30.4805C14.9766 31.6456 14.0323 32.5898 12.8672 32.5898H8.4375C3.78493 32.5898 0 28.8049 0 24.1523V16.1367C0 11.4841 3.78493 7.69922 8.4375 7.69922H16.4531C21.1057 7.69922 24.8906 11.4841 24.8906 16.1367V24.9026C24.8906 27.9373 24.3303 30.9093 23.2258 33.736L18.8398 44.9594C18.5143 45.792 17.7175 46.3016 16.8746 46.3016ZM47.9491 44.9594L52.3352 33.736C53.4397 30.9093 54 27.9373 54 24.9026V16.1367C54 11.4841 50.2151 7.69922 45.5625 7.69922H37.5469C32.8943 7.69922 29.1094 11.4841 29.1094 16.1367V24.1523C29.1094 28.8049 32.8943 32.5898 37.5469 32.5898H41.9766C43.1417 32.5898 44.0859 31.6456 44.0859 30.4805C44.0859 29.3154 43.1417 28.3711 41.9766 28.3711H37.5469C35.2208 28.3711 33.3281 26.4784 33.3281 24.1523V16.1367C33.3281 13.8106 35.2208 11.918 37.5469 11.918H45.5625C47.8886 11.918 49.7812 13.8106 49.7812 16.1367V24.9026C49.7812 27.4095 49.3186 29.865 48.406 32.2005L44.0196 43.4235C43.5957 44.5086 44.1317 45.7318 45.2164 46.1562C45.469 46.2546 45.7285 46.3012 45.984 46.3012C46.8269 46.3016 47.6237 45.792 47.9491 44.9594Z" fill="#23201B"/>
</svg>
